<svg xmlns="http://www.w3.org/2000/svg" width="20" height="17" viewBox="0 0 20 17">
    <path fill="#101A2A" fill-rule="nonzero" d="M20 6.873c.02-1.144-.798-2.123-1.908-2.286L16.71 1.19a.476.476 0 0 0-.117-.17.398.398 0 0 0-.183-.102A27.685 27.685 0 0 0 9.446 0a22.088 22.088 0 0 0-5.83.951.398.398 0 0 0-.184.102.476.476 0 0 0-.116.17S2.658 2.812 1.94 4.621C.836 4.774.011 5.735.01 6.873V7H.95C.434 8.257.01 9.243.01 9.345v7.136a.537.537 0 0 0 0 .195c.026.06.063.115.108.161.05.071.12.124.2.153a.441.441 0 0 0 .175 0h2.765c.06.013.123.013.184 0a.544.544 0 0 0 .267-.272.806.806 0 0 0 0-.195v-1.597h12.568v1.555a.554.554 0 0 0 0 .195c.024.06.058.114.1.161a.491.491 0 0 0 .342.153h2.757a.522.522 0 0 0 .45-.314.537.537 0 0 0 0-.195V9.285L19 7h1v-.127zM4.565 2.455A19.933 19.933 0 0 1 9.463 1.7h.283c1.927.042 3.843.3 5.714.773l1.666 4.06H2.899s1.275-3.185 1.666-4.077zM5.64 11.74H1.883V9.345h1.591c.587.01 1.145.26 1.552.692.406.432.627 1.011.614 1.61v.093zm12.494 0h-3.765v-.127c-.01-1.234.956-2.245 2.166-2.268h1.59l.009 2.395z"/>
</svg>
