<svg xmlns="http://www.w3.org/2000/svg" width="22" height="21" viewBox="0 0 22 21">
    <path fill="#101A2A" fill-rule="evenodd" d="M7.597 14.13l7.488-1.65s1.048-.332 1.475.273c.389.55.11 1.381.11 1.381l-2.533 6.432H3.953L.02 4.418s-.177-.952.526-1.19c.702-.24 1.194.272 1.334.68l5.163 10.035s.133.303.554.187zm-1.55-9.199c-.963 0-1.744-.756-1.744-1.69 0-.934.78-1.69 1.745-1.69.964 0 1.745.756 1.745 1.69 0 .934-.781 1.69-1.745 1.69zm.193 3.355c-.42-.84-.055-1.85.813-2.257.827-.386 1.812-.085 2.267.67l1.41 2.718s.338.55.805.45l2.234-.392s1.017-.216 1.454.387c.433.6-.121.921-.121.921l-6.36 1.401s-.364.079-.567-.316L6.24 8.286zm11.885 6.774l3.645 4.882s.463.597.075.883c-.389.288-1.097.228-1.523-.236l-3.172-2.985.975-2.544zM14.224 0h2.111a2 2 0 0 1 2 2v2.855a2 2 0 0 1-2 2h-2.111a2 2 0 0 1-2-2V2a2 2 0 0 1 2-2z"/>
</svg>
