<svg xmlns="http://www.w3.org/2000/svg" width="20" height="24" viewBox="0 0 20 24">
  <path id="Type_Travel_Insurrance_Icon_Color_Default_State_Off" data-name="Type=Travel Insurrance Icon, Color=Default, State=Off" d="M11.678,23.937h0A.832.832,0,0,0,12,24a.86.86,0,0,0,.126-.01.8.8,0,0,0,.2-.053h0l0,0C18.835,21.443,22,18.36,22,14.5V2.693a.8.8,0,0,0-.305-.627.844.844,0,0,0-.69-.165,12.1,12.1,0,0,1-3.811.031A9.083,9.083,0,0,1,12.618.262a.82.82,0,0,0-.3-.208A.856.856,0,0,0,11.4.249,9.014,9.014,0,0,1,6.807,1.931,12.134,12.134,0,0,1,2.995,1.9a.839.839,0,0,0-.69.165.8.8,0,0,0-.3.627V14.505c0,3.852,3.162,6.936,9.664,9.427A.04.04,0,0,1,11.678,23.937ZM12.941,5.88l-.053,3.135,5.076,2.6a1.053,1.053,0,0,1,.4,1.375L18.36,13c-.082.183-.251.235-1.042.039l-4.475-1.182-.069,3.208,1.3,1.331a.21.21,0,0,1,.061.149v.6a.221.221,0,0,1-.332.185l-1.916-.726-1.9.726a.22.22,0,0,1-.331-.185v-.6a.212.212,0,0,1,.061-.149l1.35-1.38L11,11.908,6.64,13.043c-.817.222-.959.144-1.042-.039l-.008-.016A1.06,1.06,0,0,1,6,11.612l4.961-2.569L10.905,5.88a1,1,0,0,1,.957-1.029h.122A.994.994,0,0,1,12.941,5.88Z" transform="translate(-2)" fill="#101a2a" fill-rule="evenodd"/>
</svg>
